<svg viewBox="0 0 111 27" fill="none" xmlns="http://www.w3.org/2000/svg">
    <path fill-rule="evenodd" clip-rule="evenodd" d="M88.1498 16.1543L86.7548 9.73403C86.4282 8.22823 85.7613 7.83901 84.726 7.83901C83.6929 7.83901 83.0281 8.22823 82.7051 9.73403L81.3029 16.1543C80.5273 19.7278 79.1928 20.9789 76.4999 20.9789V20.5897C76.9718 20.4631 77.4265 19.6206 78.333 16.0457L79.923 9.67071C80.5496 7.19223 81.9698 5.6001 84.726 5.6001C87.4851 5.6001 88.906 7.19223 89.5276 9.67071L91.1255 16.0457C92.0305 19.6206 92.4794 20.4631 92.9579 20.5897V20.9789C90.2636 20.9789 88.924 19.7278 88.1498 16.1543Z" fill="#00953B"/>
    <path fill-rule="evenodd" clip-rule="evenodd" d="M42.7978 8.14003H40.1711V13.2244H42.7978C44.1561 13.2244 45.3389 12.2567 45.3389 10.6833C45.3389 9.10985 44.1561 8.14003 42.7978 8.14003ZM40.179 15.9942C40.179 20.0195 39.1812 20.7814 36.4883 20.7735V20.3871C36.9811 20.267 37.3725 20.0454 37.3725 15.841L37.3703 9.86311C37.3703 6.9141 37.1789 6.41696 36.5127 6.28962V5.90112H43.4223C46.1382 5.90112 48.2037 7.9278 48.2037 10.6833C48.2037 13.4402 46.1382 15.4661 43.4223 15.4661H40.1711L40.179 15.9942Z" fill="#00953B"/>
    <path fill-rule="evenodd" clip-rule="evenodd" d="M105.269 16.1543L105.006 15.055H98.3329L98.0724 16.1543C97.2314 19.7278 96.0695 20.9789 93.3788 20.9789V20.5897C93.8529 20.4631 94.3241 19.6206 95.2069 16.0457L96.8012 9.67071C97.448 7.06489 98.9574 5.6001 101.672 5.6001C104.384 5.6001 105.891 7.06489 106.537 9.67071L108.13 16.0457C109.014 19.6206 109.49 20.4631 109.961 20.5897V20.9789C107.269 20.9789 106.109 19.7278 105.269 16.1543ZM103.867 9.90957C103.48 8.22823 102.833 7.83901 101.672 7.83901C100.506 7.83901 99.8603 8.22823 99.4718 9.90957L98.8063 12.8579H104.534L103.867 9.90957Z" fill="#00953B"/>
    <path fill-rule="evenodd" clip-rule="evenodd" d="M50.826 9.78619C50.826 6.83719 50.7491 6.41127 49.9994 6.21199V5.82205H53.5168V15.3993L53.6901 15.5072L63.6624 5.47168H64.0494V15.8403C64.0494 20.0455 64.4415 20.2671 64.9351 20.3865V20.7728C62.353 20.8045 61.3587 20.0764 61.3587 16.018V11.2654L61.186 11.1553L51.2124 21.1944H50.826V9.78619Z" fill="#00953B"/>
    <path fill-rule="evenodd" clip-rule="evenodd" d="M67.5491 5.88354H78.4832V8.98651H78.0911C77.963 8.25124 77.1882 8.12174 74.5183 8.12174H71.2377V15.9399C71.2377 19.966 70.2412 20.7811 67.5527 20.7732V20.3875C68.0426 20.2674 68.4246 20.0458 68.4246 15.8407V9.86351C68.4246 6.91379 68.2174 6.41665 67.5491 6.29003V5.88354Z" fill="#00953B"/>
    <path fill-rule="evenodd" clip-rule="evenodd" d="M7.38824 5.56787C7.44654 5.64002 7.58737 5.81053 7.72427 5.96334C7.81008 6.05253 9.35592 7.64094 10.159 8.464C9.61269 7.42058 8.64916 5.57771 8.58628 5.47475C8.48475 5.29505 8.3675 5.11208 8.31444 5.02879C7.99545 4.52183 7.3961 4.068 6.72864 3.81616C6.7889 4.48051 7.02471 5.13175 7.38824 5.56787Z" fill="url(#paint0_radial_2401_19777)"/>
    <path fill-rule="evenodd" clip-rule="evenodd" d="M4.85765 15.3754C4.65918 15.4194 4.45088 15.4758 4.35263 15.4961C3.77228 15.6437 3.15984 16.0739 2.70984 16.6294C3.36158 16.7828 4.05722 16.754 4.57796 16.5461C4.66704 16.512 4.86879 16.4333 5.05481 16.3493C5.17337 16.2982 7.15743 15.3125 8.18384 14.8042C7.02904 15.0009 4.97686 15.3485 4.85765 15.3754Z" fill="url(#paint1_radial_2401_19777)"/>
    <path fill-rule="evenodd" clip-rule="evenodd" d="M13.1195 21.9887C13.094 22.1934 13.0829 22.4098 13.0737 22.5062C13.0344 23.1056 13.2492 23.8244 13.6449 24.4245C13.9901 23.85 14.178 23.1823 14.1427 22.6223C14.1328 22.5206 14.123 22.3081 14.1008 22.1035C14.0909 21.9769 13.7667 19.7839 13.6003 18.646C13.4307 19.8088 13.1281 21.8687 13.1195 21.9887Z" fill="url(#paint2_radial_2401_19777)"/>
    <path fill-rule="evenodd" clip-rule="evenodd" d="M18.6858 4.83583C18.636 4.91846 18.5181 5.10013 18.4146 5.27982C18.3537 5.38541 17.324 7.35158 16.7902 8.36942C17.6142 7.52734 19.065 6.03993 19.1482 5.95139C19.2805 5.79858 19.4188 5.62807 19.4797 5.55593C19.8661 5.0916 20.1118 4.38462 20.1511 3.66977L20.1504 3.66911V3.66846C19.5301 3.93013 18.9864 4.35904 18.6858 4.83583Z" fill="url(#paint3_radial_2401_19777)"/>
    <path fill-rule="evenodd" clip-rule="evenodd" d="M18.9216 14.6716C19.9697 15.193 21.8325 16.1158 21.9439 16.1636C22.1293 16.2456 22.3343 16.3282 22.4234 16.361C22.9814 16.586 23.7314 16.5998 24.4179 16.4128C23.9817 15.9072 23.4052 15.5216 22.8603 15.3819C22.7692 15.3583 22.5583 15.3032 22.3572 15.2632C22.2334 15.2356 20.0496 14.8625 18.9216 14.6716Z" fill="url(#paint4_radial_2401_19777)"/>
    <path fill-rule="evenodd" clip-rule="evenodd" d="M20.4795 3.55259C20.3688 3.58669 20.2574 3.63194 20.1513 3.67391C20.112 4.38876 19.8664 5.0964 19.4832 5.56138C19.419 5.63352 19.2808 5.80404 19.1485 5.95685C19.0653 6.04538 17.6144 7.5328 16.7904 8.37488C16.6031 8.73689 16.4747 8.97824 16.4747 8.97824C15.9808 9.91673 15.5996 10.9916 15.9428 12.1019C16.3168 13.1991 17.2548 13.8438 18.2085 14.3134C18.2085 14.3134 18.4993 14.4583 18.9218 14.6682C20.0498 14.859 22.233 15.2322 22.3574 15.2597C22.5585 15.2998 22.7694 15.3548 22.8605 15.3785C23.4054 15.5181 23.9819 15.9038 24.4194 16.4094C24.4902 16.3904 24.5609 16.3714 24.6297 16.3484C26.4022 15.7457 27.3729 13.8602 26.8659 12.079C26.374 10.6263 25.2454 10.8388 24.7253 9.24254C24.2118 7.64888 25.246 7.15635 24.7928 5.68992C24.2779 4.28514 22.9489 3.39453 21.5164 3.39453C21.1731 3.39453 20.824 3.44569 20.4795 3.55259Z" fill="#D8D8D8"/>

    <mask id="mask0_2401_19777" style="mask-type:alpha" maskUnits="userSpaceOnUse" x="15" y="3" width="12" height="14">
        <path fill-rule="evenodd" clip-rule="evenodd" d="M20.4795 3.55259C20.3688 3.58669 20.2574 3.63194 20.1513 3.67391C20.112 4.38876 19.8664 5.0964 19.4832 5.56138C19.419 5.63352 19.2808 5.80404 19.1485 5.95685C19.0653 6.04538 17.6144 7.5328 16.7904 8.37488C16.6031 8.73689 16.4747 8.97824 16.4747 8.97824C15.9808 9.91673 15.5996 10.9916 15.9428 12.1019C16.3168 13.1991 17.2548 13.8438 18.2085 14.3134C18.2085 14.3134 18.4993 14.4583 18.9218 14.6682C20.0498 14.859 22.233 15.2322 22.3574 15.2597C22.5585 15.2998 22.7694 15.3548 22.8605 15.3784C23.4054 15.5181 23.9819 15.9038 24.4194 16.4094C24.4902 16.3904 24.5609 16.3714 24.6297 16.3484C26.4022 15.7457 27.3729 13.8602 26.8659 12.079C26.374 10.6263 25.2454 10.8388 24.7253 9.24254C24.2118 7.64888 25.246 7.15635 24.7928 5.68992C24.2779 4.28514 22.9489 3.39453 21.5164 3.39453C21.1731 3.39453 20.824 3.44569 20.4795 3.55259Z" fill="white"/>
    </mask>

    <g mask="url(#mask0_2401_19777)">
        <path d="M27.2337 -1.1853L32.4957 15.271L16.9903 20.3782L11.7283 3.92183L27.2337 -1.1853Z" fill="url(#paint5_radial_2401_19777)"/>
    </g>

    <path fill-rule="evenodd" clip-rule="evenodd" d="M15.1163 15.0076C14.1908 15.7008 13.8632 16.7941 13.7159 17.8454C13.7159 17.8454 13.6694 18.168 13.6006 18.6317C13.767 19.7695 14.0912 21.9626 14.101 22.0892C14.1233 22.2938 14.1331 22.5063 14.1429 22.608C14.1783 23.168 13.9903 23.8357 13.6451 24.4102C13.6844 24.4718 13.725 24.5341 13.7696 24.5912C14.8851 26.0897 16.9798 26.4334 18.5119 25.3985C19.744 24.481 19.1892 23.4717 20.5464 22.4853C21.903 21.5003 22.689 22.3384 23.944 21.4491C25.3995 20.3099 25.7217 18.2113 24.6396 16.6819C24.5741 16.5868 24.4968 16.4937 24.4196 16.4045C23.7318 16.5914 22.9818 16.5776 22.4237 16.3527C22.3346 16.3199 22.1296 16.2373 21.9462 16.1553C21.8355 16.1074 19.9693 15.184 18.922 14.6633C18.5198 14.5944 18.2525 14.5472 18.2525 14.5472C17.8707 14.4816 17.4803 14.4351 17.0912 14.4351C16.4034 14.4351 15.7222 14.578 15.1163 15.0076Z" fill="#D8D8D8"/>

    <mask id="mask1_2401_19777" style="mask-type:alpha" maskUnits="userSpaceOnUse" x="13" y="14" width="13" height="12">
        <path fill-rule="evenodd" clip-rule="evenodd" d="M15.1163 15.0076C14.1908 15.7008 13.8632 16.7941 13.7159 17.8454C13.7159 17.8454 13.6694 18.168 13.6006 18.6317C13.767 19.7695 14.0912 21.9626 14.101 22.0892C14.1233 22.2938 14.1331 22.5063 14.1429 22.608C14.1783 23.168 13.9903 23.8357 13.6451 24.4102C13.6844 24.4718 13.725 24.5341 13.7696 24.5912C14.8851 26.0897 16.9798 26.4334 18.5119 25.3985C19.744 24.481 19.1892 23.4717 20.5464 22.4853C21.903 21.5003 22.689 22.3384 23.944 21.4491C25.3995 20.3099 25.7217 18.2113 24.6396 16.6819C24.5741 16.5868 24.4968 16.4937 24.4196 16.4045C23.7318 16.5914 22.9818 16.5776 22.4237 16.3527C22.3346 16.3199 22.1296 16.2373 21.9462 16.1553C21.8355 16.1074 19.9693 15.184 18.922 14.6633C18.5198 14.5944 18.2525 14.5472 18.2525 14.5472C17.8707 14.4816 17.4803 14.4351 17.0912 14.4351C16.4034 14.4351 15.7222 14.578 15.1163 15.0076Z" fill="white"/>
    </mask>

    <g mask="url(#mask1_2401_19777)">
        <path d="M32.7768 22.9866L18.1834 33.6974L7.58923 19.0144L22.1826 8.23267L32.7768 22.9866Z" fill="url(#paint6_radial_2401_19777)"/>
    </g>
    <path fill-rule="evenodd" clip-rule="evenodd" d="M8.96863 14.6656C8.96863 14.6656 8.64898 14.7181 8.18391 14.7981C7.15815 15.3064 5.17344 16.2921 5.05488 16.3432C4.86886 16.4272 4.66711 16.5059 4.57803 16.54C4.05729 16.7479 3.36427 16.7767 2.70991 16.6233C2.66406 16.681 2.62083 16.7406 2.57628 16.799C1.49943 18.3277 1.81712 20.4264 3.2765 21.5656C4.52628 22.4535 5.31361 21.618 6.67016 22.6011C8.02605 23.5875 7.47584 24.5994 8.70334 25.5176C10.242 26.5525 12.3308 26.2088 13.4483 24.7076C13.5191 24.6106 13.5832 24.5155 13.6448 24.4145C13.2492 23.8144 13.0343 23.0956 13.0736 22.4962C13.0828 22.3998 13.0939 22.1833 13.1195 21.9787C13.128 21.8587 13.4306 19.7988 13.6003 18.636C13.542 18.2333 13.5007 17.9631 13.5007 17.9631C13.3507 16.9098 13.0271 15.8166 12.0983 15.1234C11.4944 14.6964 10.8132 14.5535 10.1287 14.5535C9.73827 14.5535 9.34723 14.5987 8.96863 14.6656Z" fill="#D8D8D8"/>
    <mask id="mask2_2401_19777" style="mask-type:alpha" maskUnits="userSpaceOnUse" x="1" y="14" width="13" height="13">
        <path fill-rule="evenodd" clip-rule="evenodd" d="M8.96863 14.6656C8.96863 14.6656 8.64898 14.7181 8.18391 14.7981C7.15815 15.3064 5.17344 16.2921 5.05488 16.3432C4.86886 16.4272 4.66711 16.5059 4.57803 16.54C4.05729 16.7479 3.36427 16.7767 2.70991 16.6233C2.66406 16.681 2.62083 16.7406 2.57628 16.799C1.49943 18.3277 1.81712 20.4264 3.2765 21.5656C4.52628 22.4535 5.31361 21.618 6.67016 22.6011C8.02605 23.5875 7.47584 24.5994 8.70334 25.5176C10.242 26.5525 12.3308 26.2088 13.4483 24.7076C13.5191 24.6106 13.5832 24.5155 13.6448 24.4145C13.2492 23.8144 13.0343 23.0956 13.0736 22.4962C13.0828 22.3998 13.0939 22.1833 13.1195 21.9787C13.128 21.8587 13.4306 19.7988 13.6003 18.636C13.542 18.2333 13.5007 17.9631 13.5007 17.9631C13.3507 16.9098 13.0271 15.8166 12.0983 15.1234C11.4944 14.6964 10.8132 14.5535 10.1287 14.5535C9.73827 14.5535 9.34723 14.5987 8.96863 14.6656Z" fill="white"/>
    </mask>
    <g mask="url(#mask2_2401_19777)">
        <path d="M9.20249 33.8405L-5.39087 23.1297L5.20335 8.37573L19.8669 19.0865L9.20249 33.8405Z" fill="url(#paint7_radial_2401_19777)"/>
    </g>
    <path fill-rule="evenodd" clip-rule="evenodd" d="M2.20959 5.87662C1.75305 7.34304 2.79322 7.83557 2.27182 9.42857C1.75698 11.0235 0.628376 10.8137 0.135801 12.265C-0.375769 14.0476 0.5989 15.9304 2.37139 16.5338C2.48143 16.5686 2.5954 16.6033 2.71003 16.6276C3.16003 16.0721 3.77247 15.6419 4.35413 15.4943C4.45107 15.474 4.65937 15.4176 4.85784 15.3736C4.97706 15.3467 7.02923 14.9978 8.18403 14.8024C8.5515 14.6214 8.79517 14.4988 8.79517 14.4988C9.74757 14.0305 10.6862 13.3845 11.0583 12.2847C11.4008 11.179 11.0229 10.1047 10.5251 9.16624C10.5251 9.16624 10.3757 8.87505 10.1589 8.46123C9.35652 7.63816 7.81002 6.05041 7.72421 5.96056C7.58731 5.80775 7.44648 5.63724 7.38818 5.5651C7.02465 5.12897 6.78884 4.47774 6.72858 3.81339C6.66308 3.78584 6.59364 3.76289 6.52618 3.73993C6.17967 3.63172 5.82924 3.58057 5.48535 3.58057C4.05348 3.57991 2.72313 4.47315 2.20959 5.87662Z" fill="#D8D8D8"/>
    <mask id="mask3_2401_19777" style="mask-type:alpha" maskUnits="userSpaceOnUse" x="0" y="3" width="12" height="14">
        <path fill-rule="evenodd" clip-rule="evenodd" d="M2.20959 5.87662C1.75305 7.34304 2.79322 7.83557 2.27182 9.42857C1.75698 11.0235 0.628376 10.8137 0.135801 12.265C-0.375769 14.0476 0.5989 15.9304 2.37139 16.5338C2.48143 16.5686 2.5954 16.6033 2.71003 16.6276C3.16003 16.0721 3.77247 15.6419 4.35413 15.4943C4.45107 15.474 4.65937 15.4176 4.85784 15.3736C4.97706 15.3467 7.02923 14.9978 8.18403 14.8024C8.5515 14.6214 8.79517 14.4988 8.79517 14.4988C9.74757 14.0305 10.6862 13.3845 11.0583 12.2847C11.4008 11.179 11.0229 10.1047 10.5251 9.16624C10.5251 9.16624 10.3757 8.87505 10.1589 8.46123C9.35652 7.63816 7.81002 6.05041 7.72421 5.96056C7.58731 5.80775 7.44648 5.63724 7.38818 5.5651C7.02465 5.12897 6.78884 4.47774 6.72858 3.81339C6.66308 3.78584 6.59364 3.76289 6.52618 3.73993C6.17967 3.63172 5.82924 3.58057 5.48535 3.58057C4.05348 3.57991 2.72313 4.47315 2.20959 5.87662Z" fill="white"/>
    </mask>
    <g mask="url(#mask3_2401_19777)">
        <path d="M-5.3905 15.5553L-0.0583158 -0.971924L15.4471 4.13521L10.1149 20.6625L-5.3905 15.5553Z" fill="url(#paint8_radial_2401_19777)"/>
    </g>
    <path fill-rule="evenodd" clip-rule="evenodd" d="M13.4331 1.1595C11.7628 1.1595 11.6128 0.0209864 10.082 0C8.23154 0.0668943 6.73678 1.57333 6.71582 3.44637C6.71189 3.56507 6.71779 3.68247 6.72827 3.80117C7.39574 4.05301 7.99508 4.50684 8.31407 5.01379C8.36713 5.09708 8.48438 5.28006 8.58591 5.45976C8.64879 5.56272 9.61363 7.40625 10.1586 8.44901C10.4422 8.73889 10.6315 8.93564 10.6315 8.93564C11.3724 9.69771 12.2756 10.3896 13.4331 10.406C14.5951 10.3896 15.4957 9.69771 16.2365 8.93564C16.2365 8.93564 16.4671 8.70282 16.79 8.36638C17.3239 7.34854 18.3536 5.38237 18.4145 5.27678C18.518 5.09708 18.6359 4.91542 18.6857 4.83279C18.9863 4.356 19.53 3.92709 20.1509 3.66541C20.1516 3.59327 20.1568 3.51851 20.1516 3.44637C20.128 1.57333 18.6392 0.0668943 16.79 0C15.256 0.0209864 15.1079 1.1595 13.4331 1.1595Z" fill="#D8D8D8"/>
    <mask id="mask4_2401_19777" style="mask-type:alpha" maskUnits="userSpaceOnUse" x="6" y="0" width="15" height="11">
        <path fill-rule="evenodd" clip-rule="evenodd" d="M13.4331 1.1595C11.7628 1.1595 11.6128 0.0209864 10.082 0C8.23154 0.0668943 6.73678 1.57333 6.71582 3.44637C6.71189 3.56507 6.71779 3.68247 6.72827 3.80117C7.39574 4.05301 7.99508 4.50684 8.31407 5.01379C8.36713 5.09708 8.48438 5.28006 8.58591 5.45975C8.64879 5.56272 9.61363 7.40625 10.1586 8.44901C10.4422 8.73889 10.6315 8.93563 10.6315 8.93563C11.3724 9.69771 12.2756 10.3896 13.4331 10.406C14.5951 10.3896 15.4957 9.69771 16.2365 8.93563C16.2365 8.93563 16.4671 8.70282 16.79 8.36638C17.3239 7.34854 18.3536 5.38237 18.4145 5.27678C18.518 5.09708 18.6359 4.91542 18.6857 4.83279C18.9863 4.356 19.53 3.92709 20.1509 3.66541C20.1516 3.59327 20.1568 3.51851 20.1516 3.44637C20.128 1.57333 18.6392 0.0668943 16.79 0C15.256 0.0209864 15.1079 1.1595 13.4331 1.1595Z" fill="white"/>
    </mask>
    <g mask="url(#mask4_2401_19777)">
        <path d="M6.46643 -0.766602H20.8493V10.5117H6.46643V-0.766602Z" fill="url(#paint9_radial_2401_19777)"/>
    </g>

    <defs>

        <radialGradient id="paint0_radial_2401_19777" cx="0" cy="0" r="1" gradientUnits="userSpaceOnUse" gradientTransform="translate(11.0856 10.8888) rotate(-75.4157) scale(6.98485 5.42837)">
            <stop stop-color="#F4ECE0"/>
            <stop offset="0.5112" stop-color="#B48C80"/>
            <stop offset="1" stop-color="#933F39"/>
        </radialGradient>
        <radialGradient id="paint1_radial_2401_19777" cx="0" cy="0" r="1" gradientUnits="userSpaceOnUse" gradientTransform="translate(11.4057 15.1102) rotate(-165.437) scale(6.37343 3.24409)">
            <stop stop-color="#F4EDEB"/>
            <stop offset="0.5112" stop-color="#B49B9E"/>
            <stop offset="1" stop-color="#785830"/>
        </radialGradient>
        <radialGradient id="paint2_radial_2401_19777" cx="0" cy="0" r="1" gradientUnits="userSpaceOnUse" gradientTransform="translate(13.6401 14.5603) rotate(104.803) scale(5.2191 2.73646)">
            <stop stop-color="#EFEBE0"/>
            <stop offset="0.5112" stop-color="#AE9954"/>
            <stop offset="1" stop-color="#91592F"/>
        </radialGradient>
        <radialGradient id="paint3_radial_2401_19777" cx="0" cy="0" r="1" gradientUnits="userSpaceOnUse" gradientTransform="translate(15.9549 10.777) rotate(75.8537) scale(7.05495 5.332)">
            <stop stop-color="#E2DDDB"/>
            <stop offset="0.5112" stop-color="#9D8F8C"/>
            <stop offset="1" stop-color="#2B2E2E"/>
        </radialGradient>
        <radialGradient id="paint4_radial_2401_19777" cx="0" cy="0" r="1" gradientUnits="userSpaceOnUse" gradientTransform="translate(15.224 14.5803) rotate(53.5248) scale(4.36491 8.81715)">
            <stop stop-color="#B4C9B6"/>
            <stop offset="0.5112" stop-color="#889281"/>
            <stop offset="1" stop-color="#194936"/>
        </radialGradient>
        <radialGradient id="paint5_radial_2401_19777" cx="0" cy="0" r="1" gradientUnits="userSpaceOnUse" gradientTransform="translate(13.9285 12.7204) rotate(72.1851) scale(11.055 10.7248)">
            <stop stop-color="#8FD0F1"/>
            <stop offset="0.5112" stop-color="#4B97D1"/>
            <stop offset="1" stop-color="#0064AD"/>
        </radialGradient>
        <radialGradient id="paint6_radial_2401_19777" cx="0" cy="0" r="1" gradientUnits="userSpaceOnUse" gradientTransform="translate(13.933 13.172) rotate(143.7) scale(10.9885 11.0251)">
            <stop stop-color="#FFF0E2"/>
            <stop offset="0.5112" stop-color="#FFD02A"/>
            <stop offset="1" stop-color="#F59324"/>
        </radialGradient>
        <radialGradient id="paint7_radial_2401_19777" cx="0" cy="0" r="1" gradientUnits="userSpaceOnUse" gradientTransform="translate(13.4726 13.2907) rotate(-143.7) scale(10.9889 11.0161)">
            <stop stop-color="#EDE6F1"/>
            <stop offset="0.5112" stop-color="#C2A4CE"/>
            <stop offset="1" stop-color="#8D5BA4"/>
        </radialGradient>
        <radialGradient id="paint8_radial_2401_19777" cx="0" cy="0" r="1" gradientUnits="userSpaceOnUse" gradientTransform="translate(13.2163 12.9359) rotate(-72.1852) scale(11.0542 10.7248)">
            <stop stop-color="#F6F8E8"/>
            <stop offset="0.5112" stop-color="#B2D138"/>
            <stop offset="1" stop-color="#74BD43"/>
        </radialGradient>
        <radialGradient id="paint9_radial_2401_19777" cx="0" cy="0" r="1" gradientUnits="userSpaceOnUse" gradientTransform="translate(13.6428 12.9167) scale(10.9475 8.5844)">
            <stop stop-color="#FFF5E5"/>
            <stop offset="0.5112" stop-color="#FAB678"/>
            <stop offset="1" stop-color="#E91D26"/>
        </radialGradient>
    </defs>
</svg>
